<svg width="20" height="20" viewBox="0 0 20 20" fill="none" xmlns="http://www.w3.org/2000/svg">
    <rect x="0.5" y="0.5" width="19" height="19" rx="3.5" fill="white"/>
    <rect x="0.5" y="0.5" width="19" height="19" rx="3.5" stroke="#4D67F9"/>
    <rect x="2" y="2" width="16" height="16" rx="2" fill="#4D67F9"/>
    <path d="M10.75 6.375V9.75H14.125C14.5234 9.75 14.875 10.1016 14.875 10.5C14.875 10.9219 14.5234 11.25 14.125 11.25H10.75V14.625C10.75 15.0469 10.3984 15.375 10 15.375C9.57812 15.375 9.25 15.0469 9.25 14.625V11.25H5.875C5.45312 11.25 5.125 10.9219 5.125 10.5C5.125 10.1016 5.45312 9.75 5.875 9.75H9.25V6.375C9.25 5.97656 9.57812 5.625 10 5.625C10.3984 5.625 10.75 5.97656 10.75 6.375Z" fill="white"/>
</svg>
