<svg width="24" height="24" viewBox="0 0 24 24" fill="none" xmlns="http://www.w3.org/2000/svg">
    <path d="M3.27344 12.1887C3.07812 11.9934 3 11.759 3 11.4855C3 11.2512 3.07812 11.0168 3.27344 10.8215L10.1484 4.25898C10.5391 3.90742 11.125 3.90742 11.4766 4.29804C11.8281 4.64961 11.8281 5.27461 11.4375 5.62617L6.24219 10.548H19.5625C20.0703 10.548 20.5 10.9777 20.5 11.4855C20.5 12.0324 20.0703 12.423 19.5625 12.423H6.24219L11.4375 17.384C11.8281 17.7355 11.8281 18.3215 11.4766 18.7121C11.125 19.1027 10.5391 19.1027 10.1484 18.7512L3.27344 12.1887Z" fill="#1E293B"/>
</svg>
