<svg width="80" height="80" viewBox="0 0 80 80" fill="none" xmlns="http://www.w3.org/2000/svg">
    <path d="M73.6621 36.9398L36.9398 73.6621C28.4893 82.1126 14.7884 82.1126 6.3379 73.6621C-2.11263 65.2116 -2.11263 51.5107 6.3379 43.0602L43.0602 6.3379C51.5107 -2.11263 65.2116 -2.11263 73.6621 6.3379C82.1126 14.7884 82.1126 28.4893 73.6621 36.9398Z" fill="#FF4646"/>
    <path d="M70.6019 40L55.301 55.3009L40 40L55.301 24.699C59.5261 20.4739 66.3767 20.4739 70.6019 24.699C74.8271 28.9242 74.8271 35.7748 70.6019 40Z" fill="#CD3232"/>
    <path d="M55.301 55.3009L36.9398 73.662C28.4893 82.1126 14.7884 82.1126 6.33789 73.662C-2.11263 65.2115 -2.11263 51.5106 6.33789 43.0601L24.699 24.699L55.301 55.3009Z" fill="#23AAE6"/>
    <path d="M9.39812 39.9999L24.6991 24.699L40 39.9999L24.6991 55.3009C20.4739 59.5261 13.6233 59.5261 9.39812 55.3009C5.17296 51.0757 5.17296 44.2251 9.39812 39.9999Z" fill="#5AD7FF"/>
    <path d="M15.5185 46.1203L30.8195 30.8193L33.8797 33.8795L18.5787 49.1805C17.7337 50.0255 16.3635 50.0255 15.5185 49.1805C14.6735 48.3355 14.6735 46.9653 15.5185 46.1203Z" fill="#A5FFFF"/>
    <path d="M53.7705 13.9884L33.8793 33.8796L30.8191 30.8194L50.7103 10.9282C51.5553 10.0832 52.9255 10.0832 53.7705 10.9282C54.6155 11.7732 54.6155 13.1434 53.7705 13.9884Z" fill="#FF7878"/>
</svg>
