<svg width="81" height="80" viewBox="0 0 81 80" fill="none" xmlns="http://www.w3.org/2000/svg">
    <rect x="0.5" width="80" height="80" rx="40" fill="#ECFDF3"/>
    <g clip-path="url(#clip0_9425_228)">
        <path opacity="0.4" d="M23.5 41V47C23.5 50.3125 26.1875 53 29.5 53C32.8125 53 35.5 50.3125 35.5 47V41H23.5ZM43.05 45.2563L46.5875 50.4125C48.4937 53.1875 52.225 53.8563 54.9313 51.9188C57.65 49.975 58.3187 46.1375 56.4062 43.3438L52.6938 37.9375L43.05 45.2563Z" fill="#17B26A"/>
        <path d="M29.5 27C32.8125 27 35.5 29.6875 35.5 33V40H23.5V33C23.5 29.6875 26.1875 27 29.5 27ZM23.5 47V41H35.5V47C35.5 50.3125 32.8125 53 29.5 53C26.1875 53 23.5 50.3125 23.5 47ZM29.5 54C33.3687 54 36.5 50.8687 36.5 47V35.85C36.6125 37.0438 37.0125 38.225 37.7375 39.275L45.7687 50.9813C47.9875 54.2125 52.35 55 55.5187 52.7375C58.6875 50.475 59.4562 46.0188 57.2375 42.7875L49.2062 31.0813C46.9875 27.8438 42.6187 27.0625 39.4562 29.325C37.7062 30.575 36.6875 32.5 36.5 34.5125V33C36.5 29.1312 33.3687 26 29.5 26C25.6312 26 22.5 29.1312 22.5 33V47C22.5 50.8687 25.6312 54 29.5 54ZM38.5625 38.7125C36.65 35.925 37.3188 32.0812 40.0375 30.1375C42.7437 28.2062 46.475 28.8688 48.3813 31.6438L52.1313 37.1125L42.4875 44.4312L38.5625 38.7125ZM46.5875 50.4188L43.05 45.2625L52.6938 37.9375L56.4062 43.35C58.3187 46.1375 57.65 49.9812 54.9313 51.925C52.225 53.8562 48.4937 53.1938 46.5875 50.4188Z" fill="#17B26A"/>
    </g>
    <defs>
        <clipPath id="clip0_9425_228">
            <rect width="36" height="32" fill="white" transform="translate(22.5 24)"/>
        </clipPath>
    </defs>
</svg>
