<svg width="33" height="32" viewBox="0 0 33 32" fill="none" xmlns="http://www.w3.org/2000/svg">
    <rect x="0.5" width="32" height="32" rx="4" fill="black"/>
    <path d="M17.4375 9.3125V15.5625H23.6875C24.1953 15.5625 24.625 15.9922 24.625 16.5C24.625 17.0469 24.1953 17.4375 23.6875 17.4375H17.4375V23.6875C17.4375 24.2344 17.0078 24.625 16.5 24.625C15.9531 24.625 15.5625 24.2344 15.5625 23.6875V17.4375H9.3125C8.76562 17.4375 8.375 17.0469 8.375 16.5C8.375 15.9922 8.76562 15.5625 9.3125 15.5625H15.5625V9.3125C15.5625 8.80469 15.9531 8.375 16.5 8.375C17.0078 8.375 17.4375 8.80469 17.4375 9.3125Z" fill="white"/>
</svg>
