<svg width="24" height="25" viewBox="0 0 24 25" fill="none" xmlns="http://www.w3.org/2000/svg">
    <path d="M6 5V6.25L9.15625 5.46875C10.3438 5.1875 11.5938 5.3125 12.6875 5.875C14.125 6.59375 15.8438 6.59375 17.2812 5.875L17.5938 5.71875C18.2188 5.40625 19 5.875 19 6.59375V15.3125C19 15.75 18.7188 16.0938 18.3438 16.25L17.25 16.6562C15.8125 17.2188 14.2188 17.125 12.8125 16.4375C11.625 15.8438 10.2812 15.6875 9 16L6 16.75V20C6 20.2812 5.75 20.5 5.5 20.5C5.21875 20.5 5 20.2812 5 20V17V15.9688V6.5V5C5 4.75 5.21875 4.5 5.5 4.5C5.75 4.5 6 4.75 6 5ZM6 7.28125V15.7188L8.75 15.0312C10.2812 14.6562 11.875 14.8438 13.2812 15.5312C14.4062 16.0938 15.7188 16.1562 16.9062 15.7188L18 15.3125V6.625L17.7188 6.75C16 7.625 13.9688 7.625 12.25 6.75C11.3438 6.3125 10.3438 6.21875 9.375 6.4375L6 7.28125Z" fill="#64748B"/>
</svg>
