<svg width="28" height="28" viewBox="0 0 28 28" fill="none" xmlns="http://www.w3.org/2000/svg">
    <path d="M14 1.75C7.23516 1.75 1.75 7.23516 1.75 14C1.75 20.7648 7.23516 26.25 14 26.25C20.7648 26.25 26.25 20.7648 26.25 14C26.25 7.23516 20.7648 1.75 14 1.75ZM19.291 9.99961L13.5324 17.984C13.4519 18.0963 13.3458 18.1879 13.2229 18.251C13.1 18.3141 12.9638 18.3471 12.8256 18.3471C12.6874 18.3471 12.5512 18.3141 12.4283 18.251C12.3053 18.1879 12.1992 18.0963 12.1188 17.984L8.70898 13.259C8.60508 13.1141 8.70898 12.9117 8.88672 12.9117H10.1691C10.448 12.9117 10.7133 13.0457 10.8773 13.2754L12.8242 15.977L17.1227 10.016C17.2867 9.78906 17.5492 9.65234 17.8309 9.65234H19.1133C19.291 9.65234 19.3949 9.85469 19.291 9.99961Z" fill="#00B368"/>
</svg>
