<svg width="24" height="25" viewBox="0 0 24 25" fill="none" xmlns="http://www.w3.org/2000/svg">
    <path d="M5.5 8H6.5V7H5.5V8ZM4.5 6.75C4.5 6.34375 4.8125 6 5.25 6H6.75C7.15625 6 7.5 6.34375 7.5 6.75V8.25C7.5 8.6875 7.15625 9 6.75 9H5.25C4.8125 9 4.5 8.6875 4.5 8.25V6.75ZM9.5 7H19.5C19.75 7 20 7.25 20 7.5C20 7.78125 19.75 8 19.5 8H9.5C9.21875 8 9 7.78125 9 7.5C9 7.25 9.21875 7 9.5 7ZM9.5 12H19.5C19.75 12 20 12.25 20 12.5C20 12.7812 19.75 13 19.5 13H9.5C9.21875 13 9 12.7812 9 12.5C9 12.25 9.21875 12 9.5 12ZM9.5 17H19.5C19.75 17 20 17.25 20 17.5C20 17.7812 19.75 18 19.5 18H9.5C9.21875 18 9 17.7812 9 17.5C9 17.25 9.21875 17 9.5 17ZM5.5 12V13H6.5V12H5.5ZM5.25 11H6.75C7.15625 11 7.5 11.3438 7.5 11.75V13.25C7.5 13.6875 7.15625 14 6.75 14H5.25C4.8125 14 4.5 13.6875 4.5 13.25V11.75C4.5 11.3438 4.8125 11 5.25 11ZM5.5 18H6.5V17H5.5V18ZM4.5 16.75C4.5 16.3438 4.8125 16 5.25 16H6.75C7.15625 16 7.5 16.3438 7.5 16.75V18.25C7.5 18.6875 7.15625 19 6.75 19H5.25C4.8125 19 4.5 18.6875 4.5 18.25V16.75Z" fill="#64748B"/>
</svg>
