<svg width="24" height="25" viewBox="0 0 24 25" fill="none" xmlns="http://www.w3.org/2000/svg">
    <path d="M17 6.5H7C6.4375 6.5 6 6.96875 6 7.5V17.5C6 18.0625 6.4375 18.5 7 18.5H13.5V15.5C13.5 14.6875 14.1562 14 15 14H18V7.5C18 6.96875 17.5312 6.5 17 6.5ZM17.5625 15H15C14.7188 15 14.5 15.25 14.5 15.5V18.0938L17.5625 15ZM7 5.5H17C18.0938 5.5 19 6.40625 19 7.5V14.1875C19 14.7188 18.7812 15.2188 18.4062 15.5938L15.0625 18.9375C14.6875 19.3125 14.1875 19.5 13.6562 19.5H7C5.875 19.5 5 18.625 5 17.5V7.5C5 6.40625 5.875 5.5 7 5.5ZM9 16.25C9 16.6875 8.65625 17 8.25 17C7.8125 17 7.5 16.6875 7.5 16.25C7.5 15.8438 7.8125 15.5 8.25 15.5C8.65625 15.5 9 15.8438 9 16.25ZM8.25 8C8.65625 8 9 8.34375 9 8.75C9 9.1875 8.65625 9.5 8.25 9.5C7.8125 9.5 7.5 9.1875 7.5 8.75C7.5 8.34375 7.8125 8 8.25 8ZM9 12.5C9 12.9375 8.65625 13.25 8.25 13.25C7.8125 13.25 7.5 12.9375 7.5 12.5C7.5 12.0938 7.8125 11.75 8.25 11.75C8.65625 11.75 9 12.0938 9 12.5Z" fill="#94A3B8"/>
</svg>
