<svg width="24" height="19" viewBox="0 0 24 19" fill="none" xmlns="http://www.w3.org/2000/svg">
    <path d="M12.8203 3.64062L15.0469 8.13281C15.3984 8.83594 16.3359 9.03125 16.9219 8.5625L20.4375 5.75C20.2422 5.51562 20.125 5.16406 20.125 4.8125C20.125 3.95312 20.7891 3.25 21.6875 3.25C22.5469 3.25 23.25 3.95312 23.25 4.8125C23.25 5.71094 22.5469 6.375 21.6875 6.375C21.6484 6.375 21.6484 6.375 21.6484 6.375L19.8516 16.2188C19.6562 17.3906 18.6016 18.25 17.3906 18.25H6.57031C5.35938 18.25 4.30469 17.3906 4.10938 16.2188L2.3125 6.375C1.41406 6.375 0.75 5.71094 0.75 4.8125C0.75 3.95312 1.41406 3.25 2.3125 3.25C3.17188 3.25 3.875 3.95312 3.875 4.8125C3.875 5.16406 3.75781 5.51562 3.5625 5.75L7.03906 8.5625C7.66406 9.03125 8.5625 8.83594 8.91406 8.13281L11.1797 3.64062C10.7109 3.36719 10.4375 2.89844 10.4375 2.3125C10.4375 1.45312 11.1016 0.75 12 0.75C12.8594 0.75 13.5625 1.45312 13.5625 2.3125C13.5625 2.89844 13.25 3.36719 12.8203 3.64062Z" fill="#F2C94C"/>
</svg>
