<svg width="38" height="39" viewBox="0 0 38 39" fill="none" xmlns="http://www.w3.org/2000/svg">
    <path d="M28.5757 31.3046L22.9691 25.245L28.5796 19.0941C28.8741 18.7709 28.851 18.2715 28.5278 17.9762C28.2054 17.6808 27.7036 17.7025 27.4091 18.0272L21.8898 24.0776L14.754 16.365H15.2194C17.9756 16.365 20.2184 14.123 20.2184 11.3661C20.2184 8.61072 17.9755 6.36713 15.2194 6.36713H10.0056C9.56796 6.36713 9.21387 6.72122 9.21387 7.15882V23.8998C9.21387 24.3373 9.56796 24.6914 10.0056 24.6914C10.4431 24.6914 10.7972 24.3373 10.7972 23.8998V16.365H12.638C12.665 16.4083 12.6813 16.4562 12.7176 16.4965L20.8191 25.2527L15.2952 31.3077C15.0006 31.6309 15.0238 32.1319 15.347 32.4272C15.4985 32.5648 15.6895 32.6328 15.8804 32.6328C16.0953 32.6328 16.3095 32.5463 16.4657 32.3746L21.8983 26.4186L27.4129 32.3793C27.5691 32.5478 27.7817 32.6328 27.9943 32.6328C28.1936 32.6331 28.3855 32.558 28.5316 32.4225C28.8533 32.1257 28.8726 31.6247 28.5757 31.3046ZM10.7972 14.7817V7.95047H15.2194C17.1027 7.95047 18.635 9.48279 18.635 11.3661C18.635 13.2494 17.1027 14.7817 15.2194 14.7817H10.7972Z" fill="#17B26A"/>
</svg>
