<svg width="24" height="25" viewBox="0 0 24 25" fill="none" xmlns="http://www.w3.org/2000/svg">
    <path d="M6 11.6875H5.96875C5.96875 11.9375 6.09375 12.2188 6.28125 12.4062L5.5625 13.0938L6.28125 12.4062L11.7812 17.9062C12.1562 18.2812 12.8125 18.2812 13.1875 17.9062L17.375 13.7188C17.75 13.3438 17.75 12.6875 17.375 12.3125L11.875 6.8125C11.6875 6.625 11.4375 6.5 11.1562 6.5H6.5C6.21875 6.5 6 6.75 6 7V11.6875ZM5 11.6875V7C5 6.1875 5.65625 5.5 6.5 5.53125H11.1562C11.6875 5.53125 12.1875 5.71875 12.5625 6.09375L18.0625 11.5938C18.8438 12.375 18.8438 13.6562 18.0625 14.4375L13.9062 18.5938C13.125 19.375 11.8438 19.375 11.0625 18.5938L5.5625 13.0938C5.1875 12.7188 5 12.2188 5 11.6875ZM8.5 9.75C8.0625 9.75 7.75 9.4375 7.75 9C7.75 8.59375 8.0625 8.25 8.5 8.25C8.90625 8.25 9.25 8.59375 9.25 9C9.25 9.4375 8.90625 9.75 8.5 9.75Z" fill="#64748B"/>
</svg>
