<svg width="32" height="32" viewBox="0 0 32 32" fill="none" xmlns="http://www.w3.org/2000/svg">
    <path d="M15.9999 13V17M15.9999 21H16.0099M25.7299 22L17.7299 7.99998C17.5555 7.69218 17.3025 7.43617 16.9969 7.25805C16.6912 7.07993 16.3437 6.98608 15.9899 6.98608C15.6361 6.98608 15.2887 7.07993 14.983 7.25805C14.6773 7.43617 14.4244 7.69218 14.2499 7.99998L6.24993 22C6.07361 22.3053 5.98116 22.6519 5.98194 23.0045C5.98272 23.3571 6.07671 23.7032 6.25438 24.0078C6.43204 24.3124 6.68708 24.5646 6.99362 24.7388C7.30017 24.9131 7.64734 25.0032 7.99993 25H23.9999C24.3508 24.9996 24.6955 24.9069 24.9992 24.7313C25.303 24.5556 25.5551 24.3031 25.7304 23.9991C25.9057 23.6951 25.998 23.3504 25.9979 22.9995C25.9978 22.6486 25.9054 22.3039 25.7299 22Z" stroke="white" stroke-width="2" stroke-linecap="round" stroke-linejoin="round"/>
</svg>
